<svg xmlns="http://www.w3.org/2000/svg" version="1.1" xmlns:xlink="http://www.w3.org/1999/xlink" xmlns:svgjs="http://svgjs.dev/svgjs" width="1500" height="935" viewBox="0 0 1500 935"><g transform="matrix(1,0,0,1,-0.9090909090909918,0.3785425101214628)"><svg viewBox="0 0 396 247" data-background-color="#ffffff" preserveAspectRatio="xMidYMid meet" height="935" width="1500" xmlns="http://www.w3.org/2000/svg" xmlns:xlink="http://www.w3.org/1999/xlink"><g id="tight-bounds" transform="matrix(1,0,0,1,0.2400000000000091,-0.09999999999999432)"><svg viewBox="0 0 395.52 247.2" height="247.2" width="395.52"><g><svg></svg></g><g><svg viewBox="0 0 395.52 247.2" height="247.2" width="395.52"><g transform="matrix(1,0,0,1,120.53810630136985,47.215199999999996)"><svg viewBox="0 0 154.44378739726028 152.7696" height="152.7696" width="154.44378739726028"><g><svg viewBox="0 0 154.44378739726028 152.7696" height="152.7696" width="154.44378739726028"><g><svg viewBox="0 0 154.44378739726028 152.7696" height="152.7696" width="154.44378739726028"><g><svg viewBox="0 0 154.44378739726028 152.7696" height="152.7696" width="154.44378739726028"><g id="textblocktransform"><svg viewBox="0 0 154.44378739726028 152.7696" height="152.7696" width="154.44378739726028" id="textblock"><g><svg viewBox="0 0 154.44378739726028 152.7696" height="152.7696" width="154.44378739726028"><g transform="matrix(1,0,0,1,0,0)"><svg width="154.44378739726028" viewBox="-0.45 -36.5 36.900000000000006 36.5" height="152.7696" data-palette-color="#84b7ff"><path d="M22.2-2.4L26.3-3.45 23.5-11.95 10.5-11.95 7.6-3.45 11.75-2.4 11.75 0-0.45 0-0.45-2.4 3.65-3.45 15.55-36.5 20.7-36.5 32.45-3.45 36.45-2.4 36.45 0 22.2 0 22.2-2.4ZM17.3-31.35L17.1-31.35 11.6-15.1 22.45-15.1 17.3-31.35Z" opacity="1" transform="matrix(1,0,0,1,0,0)" fill="#84b7ff" class="wordmark-text-0" data-fill-palette-color="primary" id="text-0"></path></svg></g></svg></g></svg></g></svg></g></svg></g></svg></g></svg></g><path d="M92.681 41.215L92.681 0 339.881 0 339.881 247.2 92.681 247.2 92.681 205.985 106.457 205.985 106.457 233.423 326.104 233.423 326.104 13.777 106.457 13.777 106.457 41.215Z" fill="#84b7ff" stroke="transparent" data-fill-palette-color="primary"></path></svg></g><defs></defs></svg><rect width="395.52" height="247.2" fill="none" stroke="none" visibility="hidden"></rect></g></svg></g></svg>